<svg width="700" height="638" xmlns="http://www.w3.org/2000/svg" xmlns:xlink="http://www.w3.org/1999/xlink" overflow="hidden"><defs><clipPath id="clip0"><rect x="1055" y="244" width="700" height="638"/></clipPath><clipPath id="clip1"><rect x="1056" y="244" width="698" height="637"/></clipPath><clipPath id="clip2"><rect x="1056" y="244" width="698" height="637"/></clipPath><clipPath id="clip3"><rect x="1056" y="244" width="698" height="637"/></clipPath><clipPath id="clip4"><rect x="1056" y="263" width="684" height="618"/></clipPath><clipPath id="clip5"><rect x="1106" y="497" width="648" height="357"/></clipPath></defs><g clip-path="url(#clip0)" transform="translate(-1055 -244)"><g clip-path="url(#clip1)"><g clip-path="url(#clip2)"><g clip-path="url(#clip3)"><path d="M556.229 557.347 567.297 606.867 520.614 606.867 516.389 587.955C465.926 618.53 396.804 634.099 302.248 624.744 147.733 609.457 40.8732 510.254 40.8732 354.987 40.8732 199.714 179.454 0 334.722 0 489.995 0 650.38 97.9664 650.38 253.234 650.38 348.436 638.391 478.314 556.229 557.347" fill="#5EC9CC" transform="matrix(1 0 0 1.00139 1056 244.413)"/><g clip-path="url(#clip4)"><path d="M115.299 316.142C115.327 316.861 115.377 317.586 115.473 318.299 115.816 321.395 116.782 324.406 118.175 327.199 119.147 329.131 120.361 330.941 121.76 332.609 122.322 330.778 122.889 328.969 123.428 327.204 119.81 324.311 117.012 320.44 115.299 316.142ZM201.725 344.458C201.545 345.514 201.315 346.571 201.051 347.616 202.006 346.065 202.793 344.408 203.371 342.677 205.433 336.424 205.287 329.671 205.124 323.002 205.023 316.299 205.062 309.58 205.394 302.877 205.613 298.175 205.967 293.478 206.433 288.792 206.006 288.719 205.579 288.64 205.152 288.545 201.175 297.085 201.023 306.872 201.573 316.271 202.124 325.676 203.298 335.171 201.725 344.458ZM207.254 288.932C207.051 292.309 206.888 295.686 206.754 299.062 207.04 295.674 207.433 292.309 207.945 289.006 207.714 288.977 207.484 288.966 207.254 288.932ZM262.448 225.783C260.751 228.401 259.178 231.137 257.948 233.985 270.555 233.682 285.994 237.227 304.793 245.891 304.523 242.604 304.518 239.284 304.523 235.986 304.529 233.654 304.45 231.165 304.023 228.828 303.377 228.463 302.72 228.126 302.04 227.862 301.062 227.491 300.062 227.193 299.034 227.03 298.012 226.845 296.967 226.788 295.922 226.811 294.871 226.845 293.82 227.008 292.764 227.243 292.612 227.283 292.466 227.187 292.427 227.041 292.405 226.918 292.461 226.8 292.556 226.738 293.539 226.148 294.658 225.788 295.798 225.603 296.944 225.406 298.124 225.434 299.27 225.609 300.416 225.805 301.546 226.154 302.568 226.704 302.973 226.918 303.349 227.17 303.72 227.435 303.405 226.232 302.978 225.097 302.394 224.064 302.18 224.013 301.961 223.962 301.748 223.923 301.068 223.805 300.394 223.698 299.714 223.659 299.034 223.603 298.354 223.614 297.663 223.637 296.972 223.665 296.281 223.755 295.556 223.844 295.405 223.861 295.259 223.755 295.242 223.603 295.225 223.49 295.281 223.389 295.36 223.328 296 222.895 296.731 222.614 297.489 222.434 298.242 222.243 299.029 222.193 299.804 222.226 300.304 222.26 300.798 222.35 301.281 222.468 300.95 222.08 300.579 221.715 300.175 221.378 299.169 221.254 298.169 221.226 297.191 221.356 296.158 221.496 295.146 221.743 294.191 222.142 293.225 222.524 292.326 223.052 291.483 223.67 290.646 224.3 289.904 225.058 289.241 225.918 289.146 226.041 288.972 226.064 288.848 225.974 288.753 225.901 288.719 225.766 288.758 225.654 289.562 223.457 291.472 221.721 293.641 220.816 294.742 220.367 295.916 220.091 297.101 220.086 297.405 220.08 297.703 220.091 298 220.114 293.422 218.462 286.882 221.226 285.578 225.912 285.196 221.754 281.893 218.17 277.932 217.024 278.258 217.282 278.589 217.535 278.893 217.827 279.775 218.704 280.539 219.698 281.101 220.799 281.668 221.9 282.067 223.086 282.191 224.3 282.202 224.451 282.095 224.586 281.938 224.603 281.814 224.614 281.702 224.541 281.657 224.434 281.207 223.361 280.685 222.35 280.056 221.417 279.415 220.496 278.707 219.625 277.893 218.855 277.095 218.08 276.201 217.406 275.252 216.805 275.162 216.749 275.066 216.704 274.977 216.653 274.836 216.659 274.696 216.653 274.555 216.664 273.325 216.765 272.162 217.086 271.061 217.569 271.842 217.636 272.617 217.788 273.364 218.018 275.758 218.782 277.949 220.434 279.05 222.67 279.117 222.805 279.061 222.974 278.926 223.041 278.814 223.097 278.679 223.063 278.595 222.979 277.803 222.12 276.937 221.378 275.982 220.782 275.022 220.193 274.005 219.709 272.932 219.389 271.87 219.052 270.757 218.872 269.639 218.816 269.358 218.805 269.083 218.833 268.802 218.844 268.083 219.339 267.392 219.895 266.74 220.507 267.133 220.473 267.527 220.462 267.914 220.468 268.667 220.502 269.42 220.586 270.139 220.788 270.864 220.973 271.572 221.232 272.224 221.62 272.353 221.698 272.398 221.872 272.319 222.007 272.263 222.103 272.162 222.148 272.055 222.142L269.948 221.985C269.252 221.951 268.572 221.906 267.886 221.906 267.201 221.889 266.515 221.912 265.824 221.923L265.341 221.945C264.268 223.148 263.302 224.457 262.448 225.783ZM113.478 308.58C112.86 301.371 115.316 293.95 120.114 288.534 125.142 282.859 132.659 279.168 135.721 272.229 139.154 264.442 135.766 255.554 134.761 247.104 134.502 244.947 134.429 242.772 134.513 240.609 134.232 242.02 134.041 243.447 133.963 244.891 133.558 250.245 134.221 255.745 133.401 261.279 132.98 264.027 132.176 266.74 130.828 269.201 129.468 271.639 127.491 273.802 124.99 275.078 124.856 275.151 124.687 275.095 124.62 274.96 124.552 274.831 124.603 274.668 124.726 274.595 127.047 273.252 128.8 271.122 129.968 268.746 131.171 266.375 131.873 263.757 132.199 261.111 132.85 255.79 132.199 250.329 132.53 244.795 132.777 240.868 133.766 236.969 135.435 233.396 138.014 221.131 145.739 209.889 156.655 203.658 168.364 196.972 183.342 194.798 192.23 184.657 204.68 170.454 224.17 162.745 242.969 164.583 254.105 165.673 264.813 170.117 273.673 176.937 291.034 166.324 314.49 179.218 325.154 191.798 336.643 205.343 338.874 226.007 330.536 241.688 328.115 246.256 324.828 250.576 324.097 255.695 323.361 260.813 326.98 266.1 332.148 265.999 328.036 270.179 320.951 270.409 315.867 267.493 313.749 266.279 311.968 264.605 310.479 262.678 310.012 283.876 310.906 324.103 323.075 343.806 340.053 371.297 321.44 411.316 321.44 411.316 321.44 411.316 231.249 409.844 216.484 377.151 212.383 368.066 208.029 349.194 206.613 328.053 206.602 333.104 206.276 338.211 204.574 343.093 203.568 345.896 202.057 348.515 200.107 350.768 197.714 357.729 193.32 364.004 186.803 367.201 179.982 370.544 171.926 370.072 164.465 368.656 157.009 367.24 149.604 365.583 142.042 364.869 133.963 364.105 127.749 364.049 119.411 368.162 117.338 364.15 116.894 359.296 117.529 351.318 117.996 345.481 119.692 339.374 121.479 333.519 119.76 331.834 118.288 329.884 117.108 327.766 115.507 324.912 114.484 321.732 114.046 318.474 113.81 316.4 113.844 314.305 114.091 312.243 113.81 311.035 113.585 309.816 113.478 308.58ZM589.753 111.731 589.753 116.046 607.721 116.046 607.721 111.731ZM589.753 148.554 613.721 148.554 613.721 144.239 589.753 144.239ZM608.103 143.407 625.396 143.407 625.396 139.092 608.103 139.092ZM589.753 143.407 607.721 143.407 607.721 139.092 589.753 139.092ZM589.753 138.266 622.12 138.266 622.12 133.952 589.753 133.952ZM589.753 131.48 613.721 131.48 613.721 127.165 589.753 127.165ZM629.323 122.024 608.103 122.024 608.103 126.339 629.323 126.339ZM589.753 126.339 607.721 126.339 607.721 122.024 589.753 122.024ZM589.753 121.192 622.12 121.192 622.12 116.878 589.753 116.878ZM543.621 108.551 579.264 108.551 579.264 104.236 543.621 104.236ZM575.988 66.2623 543.621 66.2623 543.621 70.5771 575.988 70.5771ZM543.621 103.585 567.589 103.585 567.589 99.2698 543.621 99.2698ZM579.264 94.1234 561.965 94.1234 561.965 98.4383 579.264 98.4383ZM543.621 98.4383 561.583 98.4383 561.583 94.1234 543.621 94.1234ZM543.621 93.2919 575.988 93.2919 575.988 88.9771 543.621 88.9771ZM543.621 86.5106 567.589 86.5106 567.589 82.1958 543.621 82.1958ZM583.191 77.0494 561.965 77.0494 561.965 81.3643 583.191 81.3643ZM543.621 81.3643 561.583 81.3643 561.583 77.0494 543.621 77.0494ZM543.621 76.2235 575.988 76.2235 575.988 71.9087 543.621 71.9087ZM623.098 60.0821 590.731 60.0821 590.731 64.397 623.098 64.397ZM614.699 54.9807 590.731 54.9807 590.731 59.2956 614.699 59.2956ZM609.075 54.1492 626.373 54.1492 626.373 49.8343 609.075 49.8343ZM608.698 49.8343 590.731 49.8343 590.731 54.1492 608.698 54.1492ZM623.098 44.6936 590.731 44.6936 590.731 49.0085 623.098 49.0085ZM614.699 37.9067 590.731 37.9067 590.731 42.2215 614.699 42.2215ZM609.075 37.0752 630.301 37.0752 630.301 32.7603 609.075 32.7603ZM608.698 32.7603 590.731 32.7603 590.731 37.0752 608.698 37.0752ZM623.098 27.6196 590.731 27.6196 590.731 31.9344 623.098 31.9344ZM627.682 70.5771 593.349 70.5771 593.349 104.911 627.682 104.911ZM631.997 109.225 589.034 109.225 589.034 66.2623 631.997 66.2623ZM581.545 116.046 547.217 116.046 547.217 143.559 581.545 143.559ZM585.86 147.874 542.902 147.874 542.902 111.731 585.86 111.731ZM581.545 31.9344 547.217 31.9344 547.217 60.0821 581.545 60.0821ZM585.86 64.397 542.902 64.397 542.902 27.6196 585.86 27.6196ZM618.3 275.1 594.332 275.1 594.332 279.415 618.3 279.415ZM633.902 269.954 612.676 269.954 612.676 274.269 633.902 274.269ZM594.332 274.269 612.294 274.269 612.294 269.954 594.332 269.954ZM626.699 264.813 594.332 264.813 594.332 269.128 626.699 269.128ZM594.332 248.908 618.3 248.908 618.3 244.593 594.332 244.593ZM633.902 239.446 612.676 239.446 612.676 243.761 633.902 243.761ZM594.332 243.761 612.294 243.761 612.294 239.446 594.332 239.446ZM626.699 234.3 594.332 234.3 594.332 238.615 626.699 238.615ZM594.332 218.395 618.3 218.395 618.3 214.08 594.332 214.08ZM633.902 208.939 612.676 208.939 612.676 213.254 633.902 213.254ZM594.332 213.254 612.294 213.254 612.294 208.939 594.332 208.939ZM626.699 203.793 594.332 203.793 594.332 208.108 626.699 208.108ZM567.235 280.247 583.495 280.247 583.495 263.982 567.235 263.982ZM562.92 259.667 587.809 259.667 587.809 284.561 562.92 284.561ZM583.495 233.474 567.235 233.474 567.235 249.734 583.495 249.734ZM587.809 254.048 562.92 254.048 562.92 229.159 587.809 229.159ZM583.495 202.967 567.235 202.967 567.235 219.226 583.495 219.226ZM587.809 223.541 562.92 223.541 562.92 198.652 587.809 198.652ZM540.065 275.1 516.103 275.1 516.103 279.415 540.065 279.415ZM534.447 274.269 555.673 274.269 555.673 269.954 534.447 269.954ZM534.065 269.954 516.103 269.954 516.103 274.269 534.065 274.269ZM548.47 264.813 516.103 264.813 516.103 269.128 548.47 269.128ZM540.065 214.08 516.103 214.08 516.103 218.395 540.065 218.395ZM534.447 213.254 555.673 213.254 555.673 208.939 534.447 208.939ZM534.065 208.939 516.103 208.939 516.103 213.254 534.065 213.254ZM548.47 203.793 516.103 203.793 516.103 208.108 548.47 208.108ZM489.006 280.247 505.265 280.247 505.265 263.982 489.006 263.982ZM484.691 259.667 509.58 259.667 509.58 284.561 484.691 284.561ZM505.265 202.967 489.006 202.967 489.006 219.226 505.265 219.226ZM509.58 223.541 484.691 223.541 484.691 198.652 509.58 198.652ZM501.866 19.8607 395.242 19.8607 395.242 155.633 501.866 155.633ZM683.186 615.052C683.186 626.261 530.25 635.346 341.593 635.346 152.936 635.346 0 626.261 0 615.052 0 605.232 117.349 597.04 273.257 595.158L237.879 507.243C237.137 505.372 238.053 503.254 239.924 502.512 241.795 501.771 243.913 502.686 244.655 504.557L281.078 595.068C300.72 594.86 320.94 594.754 341.593 594.754 406.377 594.754 466.948 595.827 518.564 597.686L520.614 606.867 567.297 606.867 565.701 599.731C637.677 603.451 683.186 608.934 683.186 615.052" fill="#F25044" transform="matrix(1 0 0 1.00139 1056 244.413)"/></g><path d="M409.439 142.205 464.566 142.205 464.566 140.767 409.439 140.767ZM487.669 131.996 409.439 131.996 409.439 133.435 487.669 133.435ZM487.669 123.221 409.439 123.221 409.439 124.659 487.669 124.659ZM487.669 114.45 409.439 114.45 409.439 115.889 487.669 115.889ZM487.669 105.675 409.439 105.675 409.439 107.113 487.669 107.113ZM487.669 96.8989 409.439 96.8989 409.439 98.3372 487.669 98.3372ZM486.95 37.4516 410.159 37.4516 410.159 87.0275 486.95 87.0275ZM488.388 88.4658 408.72 88.4658 408.72 36.0133 488.388 36.0133ZM506.704 201.529 487.568 201.529 487.568 220.664 506.704 220.664ZM426.564 236.969 425.547 235.952 415.766 245.733 412.265 242.228 411.249 243.244 415.766 247.767ZM428.474 251.172 409.338 251.172 409.338 232.036 428.474 232.036ZM632.464 210.377 614.114 210.377 614.114 211.816 632.464 211.816ZM632.464 240.885 614.114 240.885 614.114 242.323 632.464 242.323ZM632.464 271.392 614.114 271.392 614.114 272.83 632.464 272.83ZM616.862 276.538 595.77 276.538 595.77 277.977 616.862 277.977ZM586.371 200.09 564.359 200.09 564.359 222.103 586.371 222.103ZM586.371 230.598 564.359 230.598 564.359 252.61 586.371 252.61ZM586.371 261.105 564.359 261.105 564.359 283.123 586.371 283.123ZM554.234 210.377 535.885 210.377 535.885 211.816 554.234 211.816ZM554.234 240.885 535.885 240.885 535.885 242.323 554.234 242.323ZM554.234 271.392 535.885 271.392 535.885 272.83 554.234 272.83ZM538.627 276.538 517.541 276.538 517.541 277.977 538.627 277.977ZM508.142 200.09 486.129 200.09 486.129 222.103 508.142 222.103ZM508.142 230.598 486.129 230.598 486.129 252.61 508.142 252.61ZM508.142 261.105 486.129 261.105 486.129 283.123 508.142 283.123ZM475.999 210.377 457.656 210.377 457.656 211.816 475.999 211.816ZM475.999 240.885 457.656 240.885 457.656 242.323 475.999 242.323ZM475.999 271.392 457.656 271.392 457.656 272.83 475.999 272.83ZM460.397 276.538 439.306 276.538 439.306 277.977 460.397 277.977ZM429.913 200.09 407.9 200.09 407.9 222.103 429.913 222.103ZM429.913 230.598 407.9 230.598 407.9 252.61 429.913 252.61ZM429.913 261.105 407.9 261.105 407.9 283.123 429.913 283.123ZM439.306 272.83 454.397 272.83 454.397 271.392 439.306 271.392ZM439.306 267.69 468.802 267.69 468.802 266.251 439.306 266.251ZM439.306 247.469 460.397 247.469 460.397 246.031 439.306 246.031ZM439.306 242.323 454.397 242.323 454.397 240.885 439.306 240.885ZM439.306 237.177 468.802 237.177 468.802 235.738 439.306 235.738ZM439.306 216.956 460.397 216.956 460.397 215.518 439.306 215.518ZM439.306 211.816 454.397 211.816 454.397 210.377 439.306 210.377ZM439.306 206.669 468.802 206.669 468.802 205.231 439.306 205.231ZM517.541 272.83 532.626 272.83 532.626 271.392 517.541 271.392ZM517.541 267.69 547.032 267.69 547.032 266.251 517.541 266.251ZM517.541 247.469 538.627 247.469 538.627 246.031 517.541 246.031ZM517.541 242.323 532.626 242.323 532.626 240.885 517.541 240.885ZM517.541 237.177 547.032 237.177 547.032 235.738 517.541 235.738ZM517.541 216.956 538.627 216.956 538.627 215.518 517.541 215.518ZM517.541 211.816 532.626 211.816 532.626 210.377 517.541 210.377ZM517.541 206.669 547.032 206.669 547.032 205.231 517.541 205.231ZM595.77 272.83 610.856 272.83 610.856 271.392 595.77 271.392ZM595.77 267.69 625.261 267.69 625.261 266.251 595.77 266.251ZM595.77 247.469 616.862 247.469 616.862 246.031 595.77 246.031ZM595.77 242.323 610.856 242.323 610.856 240.885 595.77 240.885ZM595.77 237.177 625.261 237.177 625.261 235.738 595.77 235.738ZM595.77 216.956 616.862 216.956 616.862 215.518 595.77 215.518ZM595.77 211.816 610.856 211.816 610.856 210.377 595.77 210.377ZM595.77 206.669 625.261 206.669 625.261 205.231 595.77 205.231ZM645.835 296.995 395.242 296.995 395.242 182.162 645.835 182.162ZM426.564 267.476 425.547 266.459 415.766 276.241 412.265 272.741 411.249 273.757 415.766 278.275ZM428.474 281.685 409.338 281.685 409.338 262.543 428.474 262.543ZM506.704 262.543 487.568 262.543 487.568 281.685 506.704 281.685ZM504.793 236.969 503.776 235.952 493.995 245.733 490.495 242.228 489.478 243.244 493.995 247.767ZM506.704 251.172 487.568 251.172 487.568 232.036 506.704 232.036ZM584.933 262.543 565.797 262.543 565.797 281.685 584.933 281.685ZM584.933 232.036 565.797 232.036 565.797 251.172 584.933 251.172ZM584.933 201.529 565.797 201.529 565.797 220.664 584.933 220.664ZM426.564 206.461 425.547 205.444 415.766 215.22 412.265 211.72 411.249 212.737 415.766 217.254ZM428.474 220.664 409.338 220.664 409.338 201.529 428.474 201.529ZM689.017 320.069C688.911 319.99 688.804 319.917 688.692 319.844L688.692 319.839C687.68 319.142 686.45 318.721 685.107 318.721L384.05 318.721C380.983 318.721 378.359 320.912 377.814 323.929L336.89 551.622C336.43 554.195 337.587 556.622 339.57 557.976L345.627 562.252 350.301 559.077 509.934 559.077 499.978 514.519 546.655 514.519 556.611 559.077 644.183 559.077C647.245 559.077 649.875 556.881 650.414 553.864L691.13 327.339 695.287 324.508ZM278.044 508.973C278.567 508.973 279.061 508.743 279.393 508.35 280.106 507.513 280.758 506.557 281.438 505.35 281.971 504.411 282.466 503.344 282.943 502.074 283.41 500.782 283.719 499.686 283.921 498.636 284.191 497.298 284.325 496.119 284.331 495.023 284.337 494.276 283.865 493.613 283.146 493.377L282.842 493.298 282.617 493.298C281.87 493.298 281.213 493.776 280.983 494.484L279.983 497.563 279.763 498.186C279.488 498.984 279.213 499.776 278.898 500.58 278.595 501.389 278.269 502.186 277.937 502.984L277.724 503.507 276.421 506.518C276.117 507.237 276.314 508.058 276.909 508.558 277.23 508.827 277.628 508.973 278.044 508.973ZM253.442 526.39 253.981 525.609C256.307 522.232 258.414 518.811 260.234 515.44 263.055 510.237 265.56 504.563 267.695 498.568 269.78 492.512 271.364 486.511 272.392 480.741 273.488 474.707 274.078 468.533 274.151 462.403 274.156 461.487 273.454 460.735 272.437 460.673 271.533 460.673 270.785 461.375 270.729 462.274 270.358 468.128 269.566 474.084 268.375 479.972 267.133 486.039 265.538 491.815 263.622 497.152 261.751 502.552 259.38 508.052 256.565 513.502 255.11 516.305 253.481 519.187 251.7 522.07L252.369 523.727C252.498 524.019 252.796 524.794 252.796 524.794 253.217 525.744 253.442 526.39 253.442 526.39ZM148.52 472.449C148.25 472.286 147.947 472.202 147.632 472.202 147.037 472.202 146.475 472.516 146.166 473.027 145.244 474.556 144.407 476.101 143.43 477.938 142.862 479.005 142.328 480.084 141.789 481.168 141.503 481.747 141.216 482.326 140.901 482.944L140.171 484.506C139.626 485.663 139.081 486.82 138.564 487.995 137.851 489.629 137.092 491.371 136.412 493.191 136.12 493.989 136.435 494.888 137.16 495.321 137.435 495.484 137.75 495.574 138.07 495.574 138.688 495.574 139.266 495.242 139.581 494.72 140.587 493.04 141.514 491.298 142.306 489.787 142.89 488.658 143.458 487.511 144.02 486.371L144.806 484.77C145.076 484.18 145.351 483.584 145.626 482.994 146.132 481.904 146.638 480.814 147.115 479.713 147.947 477.803 148.627 476.185 149.245 474.511 149.526 473.741 149.222 472.87 148.52 472.449ZM153.863 382.826C150.857 379.769 147.441 377.381 143.705 375.73L143.317 375.589 143.014 375.589C142.362 375.589 141.755 375.966 141.474 376.55 141.272 376.96 141.244 377.426 141.396 377.859 141.548 378.292 141.857 378.64 142.267 378.842 148.514 381.87 153.852 387.511 157.29 394.714 160.481 401.422 162.066 408.979 161.863 416.592 161.728 423.339 160.369 430.688 157.706 439.059 155.374 446.374 152.335 453.644 149.402 460.678L149.323 460.864C148.958 461.74 149.351 462.74 150.217 463.139L150.638 463.302 150.953 463.302C151.638 463.302 152.262 462.903 152.554 462.28 155.762 455.363 159.105 447.97 161.65 440.346 164.498 431.851 165.976 424.109 166.173 416.676 166.313 408.237 164.515 400.018 160.959 392.916 159.02 389.062 156.633 385.668 153.863 382.826ZM248.542 444.7 248.767 444.694 248.88 444.677C249.632 444.554 250.273 444.043 250.548 443.329 250.717 442.902 267.15 400.304 262.217 359.262L260.757 359.167 257.88 359.038 257.863 359.184 257.891 359.38C262.015 392.697 251.565 427.216 247.79 438.245L188.432 366.308C187.904 366.622 187.359 366.926 186.803 367.201 186.016 367.583 185.213 367.915 184.398 368.201L246.879 443.919C247.29 444.413 247.896 444.7 248.542 444.7ZM317.844 596.653 400.355 627.446 256.47 627.446 219.215 600.72C221.114 600.816 223.12 600.793 225.243 600.574 237.946 599.259 241.087 597.192 241.716 596.653L242.39 596.653 253.79 599.585C256.453 600.271 259.229 599.046 260.543 596.653L273.859 596.653 275.224 600.035C275.415 600.512 275.724 600.934 276.123 601.254L280.365 604.675C280.763 604.996 281.359 604.76 281.432 604.254L282.179 598.849C282.247 598.344 282.185 597.827 281.999 597.349L281.713 596.653 317.844 596.653" fill="#FFFFFF" transform="matrix(1 0 0 1.00139 1056 244.413)"/><path d="M335.592 404.512C329.047 396.472 324.744 386.073 319.468 376.522 323.21 371.01 324.288 363.92 328.283 358.549 332.828 352.447 340.621 349.346 344.936 343.076 348.357 338.104 349.133 331.688 348.318 325.704 348.037 323.676 347.582 321.682 347.031 319.715 347.526 317.906 347.222 315.591 346.29 314.069 345.936 314.119 345.582 314.176 345.228 314.232 344.604 312.524 343.936 310.827 343.256 309.142 343.531 308.894 343.745 308.63 343.874 308.344 344.762 306.299 343.818 303.046 341.761 302.18 340.02 301.45 338.267 300.759 336.497 300.102 341.306 300.652 343.795 295.276 340.385 291.281 336.458 286.674 329.345 282.96 324.558 279.179 323.457 278.303 322.322 277.415 320.974 277.022 319.625 276.634 317.996 276.853 317.103 277.937 315.558 279.792 316.996 282.544 318.429 284.483 322.58 290.107 327.058 295.939 333.283 298.978 328.755 297.422 324.159 296.079 319.49 295.006 318.018 296.118 317.67 298.298 318.266 300.045 318.856 301.798 320.193 303.192 321.603 304.388 323.103 305.669 324.738 306.793 326.468 307.748 326.395 307.782 326.317 307.816 326.244 307.861 325.081 308.529 324.002 309.321 323.002 310.209 323.17 309.142 323.052 308.096 322.502 307.181 316.563 308.147 310.608 307.574 304.652 306.759 295.781 325.238 290.039 345.211 287.736 365.577 286.269 369.69 285.803 373.791 287.646 377.027 287.64 377.027 287.629 377.027 287.623 377.027 299.461 403.445 311.293 429.862 323.131 456.279 330.132 471.921 337.182 487.596 345.734 502.422L358.695 430.328C350.599 422.086 342.885 413.468 335.592 404.512ZM582.983 114.608 545.779 114.608 545.779 144.997 582.983 144.997ZM630.559 67.7006 590.472 67.7006 590.472 107.787 630.559 107.787ZM627.885 123.462 609.541 123.462 609.541 124.9 627.885 124.9ZM623.958 140.531 609.541 140.531 609.541 141.969 623.958 141.969ZM591.192 140.531 591.192 141.969 606.282 141.969 606.282 140.531ZM591.192 135.39 591.192 136.828 620.682 136.828 620.682 135.39ZM591.192 128.603 591.192 130.041 612.283 130.041 612.283 128.603ZM591.192 123.462 591.192 124.9 606.282 124.9 606.282 123.462ZM606.282 114.608 606.282 113.169 591.192 113.169 591.192 114.608ZM591.192 118.316 591.192 119.754 620.682 119.754 620.682 118.316ZM612.283 145.677 591.192 145.677 591.192 147.115 612.283 147.115ZM584.422 29.0579 544.341 29.0579 544.341 62.9587 584.422 62.9587ZM545.06 105.675 545.06 107.113 577.826 107.113 577.826 105.675ZM545.06 100.708 545.06 102.146 566.151 102.146 566.151 100.708ZM545.06 95.5617 545.06 97 560.145 97 560.145 95.5617ZM563.403 95.5617 563.403 97 577.826 97 577.826 95.5617ZM545.06 90.4154 545.06 91.8536 574.55 91.8536 574.55 90.4154ZM545.06 83.6341 545.06 85.0723 566.151 85.0723 566.151 83.6341ZM545.06 78.4877 545.06 79.926 560.145 79.926 560.145 78.4877ZM545.06 73.3469 545.06 74.7852 574.55 74.7852 574.55 73.3469ZM563.403 78.4877 563.403 79.926 581.753 79.926 581.753 78.4877ZM574.55 67.7006 545.06 67.7006 545.06 69.1388 574.55 69.1388ZM584.422 113.169 544.341 113.169 544.341 146.435 584.422 146.435ZM592.169 62.9587 621.66 62.9587 621.66 61.5204 592.169 61.5204ZM592.169 57.8573 613.26 57.8573 613.26 56.419 592.169 56.419ZM592.169 52.7109 607.26 52.7109 607.26 51.2726 592.169 51.2726ZM610.513 51.2726 610.513 52.7109 624.935 52.7109 624.935 51.2726ZM592.169 47.5702 621.66 47.5702 621.66 46.1319 592.169 46.1319ZM592.169 40.7833 613.26 40.7833 613.26 39.345 592.169 39.345ZM592.169 35.6369 607.26 35.6369 607.26 34.1986 592.169 34.1986ZM610.513 34.1986 610.513 35.6369 628.862 35.6369 628.862 34.1986ZM592.169 30.4961 621.66 30.4961 621.66 29.0579 592.169 29.0579ZM639.172 19.8607 639.172 155.633 532.548 155.633 532.548 19.8607ZM629.121 69.1388 591.911 69.1388 591.911 106.349 629.121 106.349ZM582.983 30.4961 545.779 30.4961 545.779 61.5204 582.983 61.5204ZM267.993 562.549 271.533 571.342C271.285 570.831 270.993 570.336 270.606 569.909L258.925 556.942C257.605 555.476 255.919 554.375 254.043 553.762L234.351 547.313C230.159 545.942 225.552 547.127 222.552 550.358L207.079 566.999 103.073 563.96 117.17 535.497 114.804 529.952C105.416 507.968 85.4769 492.276 61.9025 488.315 61.9025 488.315 27.333 568.645 29.6759 577.236 32.0187 585.826 37.4853 610.254 65.5937 610.254 85.8421 610.254 164.038 602.271 206.175 597.804 210.434 599.591 217.046 601.417 225.243 600.574 239.958 599.052 241.857 596.512 241.857 596.512L253.79 599.585C256.52 600.288 259.369 598.995 260.644 596.484L261.717 594.383C262.375 593.091 263.661 592.237 265.111 592.141L265.836 592.091C270.724 591.77 273.875 586.781 272.072 582.23L272.111 573.859C272.117 573.23 271.999 572.617 271.808 572.033L271.814 572.05C277.258 572.393 281.499 569.381 278.134 566.28 276.072 564.387 271.735 563.229 267.993 562.549ZM262.234 454.335C262.234 446.784 256.094 440.644 248.542 440.644 240.991 440.644 234.845 446.784 234.845 454.335 234.845 461.886 240.991 468.027 248.542 468.027 256.094 468.027 262.234 461.886 262.234 454.335ZM206.433 288.792C206.006 288.719 205.579 288.64 205.152 288.545 201.175 297.085 201.023 306.872 201.573 316.271 202.124 325.676 203.298 335.171 201.725 344.458 201.545 345.514 201.315 346.571 201.051 347.616 202.006 346.065 202.793 344.408 203.371 342.677 205.433 336.424 205.287 329.671 205.124 323.002 205.023 316.299 205.062 309.58 205.394 302.877 205.613 298.175 205.967 293.478 206.433 288.792ZM238.907 284.286C241.823 282.41 244.025 279.516 245.969 276.55 241.907 280.129 236.665 282.185 231.244 281.443 229.26 283.146 227.114 284.595 224.861 285.775 226.142 286 227.423 286.202 228.71 286.309 232.289 286.651 235.974 286.241 238.907 284.286ZM309.052 260.588C307.709 258.38 306.692 255.947 306.029 253.459 304.512 247.795 304.512 241.851 304.523 235.986 304.529 233.654 304.45 231.165 304.023 228.828 303.377 228.463 302.72 228.126 302.04 227.862 301.062 227.491 300.062 227.193 299.034 227.03 298.012 226.845 296.967 226.788 295.922 226.811 294.871 226.845 293.82 227.008 292.764 227.243 292.612 227.283 292.466 227.187 292.427 227.041 292.405 226.918 292.461 226.8 292.556 226.738 293.539 226.148 294.658 225.788 295.798 225.603 296.944 225.406 298.124 225.434 299.27 225.609 300.416 225.805 301.546 226.154 302.568 226.704 302.973 226.918 303.349 227.17 303.72 227.435 303.405 226.232 302.978 225.097 302.394 224.064 302.18 224.013 301.961 223.962 301.748 223.923 301.068 223.805 300.394 223.698 299.714 223.659 299.034 223.603 298.354 223.614 297.663 223.637 296.972 223.665 296.281 223.755 295.556 223.844 295.405 223.861 295.259 223.755 295.242 223.603 295.225 223.49 295.281 223.389 295.36 223.328 296 222.895 296.731 222.614 297.489 222.434 298.242 222.243 299.029 222.193 299.804 222.226 300.304 222.26 300.798 222.35 301.281 222.468 300.95 222.08 300.579 221.715 300.175 221.378 299.169 221.254 298.169 221.226 297.191 221.356 296.158 221.496 295.146 221.743 294.191 222.142 293.225 222.524 292.326 223.052 291.483 223.67 290.646 224.3 289.904 225.058 289.241 225.918 289.146 226.041 288.972 226.064 288.848 225.974 288.753 225.901 288.719 225.766 288.758 225.654 289.562 223.457 291.472 221.721 293.641 220.816 294.742 220.367 295.916 220.091 297.101 220.086 297.405 220.08 297.703 220.091 298 220.114 293.422 218.462 286.882 221.226 285.578 225.912 285.196 221.754 281.893 218.17 277.932 217.024 278.258 217.282 278.589 217.535 278.893 217.827 279.775 218.704 280.539 219.698 281.101 220.799 281.668 221.9 282.067 223.086 282.191 224.3 282.202 224.451 282.095 224.586 281.938 224.603 281.814 224.614 281.702 224.541 281.657 224.434 281.207 223.361 280.685 222.35 280.056 221.417 279.415 220.496 278.707 219.625 277.893 218.855 277.095 218.08 276.201 217.406 275.252 216.805 275.162 216.749 275.066 216.704 274.977 216.653 274.836 216.659 274.696 216.653 274.555 216.664 273.325 216.765 272.162 217.086 271.061 217.569 271.842 217.636 272.617 217.788 273.364 218.018 275.758 218.782 277.949 220.434 279.05 222.67 279.117 222.805 279.061 222.974 278.926 223.041 278.814 223.097 278.679 223.063 278.595 222.979 277.803 222.12 276.937 221.378 275.982 220.782 275.022 220.193 274.005 219.709 272.932 219.389 271.87 219.052 270.757 218.872 269.639 218.816 269.358 218.805 269.083 218.833 268.802 218.844 268.083 219.339 267.392 219.895 266.74 220.507 267.133 220.473 267.527 220.462 267.914 220.468 268.667 220.502 269.42 220.586 270.139 220.788 270.864 220.973 271.572 221.232 272.224 221.62 272.353 221.698 272.398 221.872 272.319 222.007 272.263 222.103 272.162 222.148 272.055 222.142L269.948 221.985C269.252 221.951 268.572 221.906 267.886 221.906 267.201 221.889 266.515 221.912 265.824 221.923L265.341 221.945C264.268 223.148 263.302 224.457 262.448 225.783 258.678 231.603 255.402 238.003 255.52 244.941 255.667 253.369 255.223 262.116 251.374 269.617 250.717 270.909 249.925 272.128 249.043 273.274 248.447 274.533 247.818 275.774 247.11 276.982 245.222 280.196 242.902 283.286 239.682 285.477 236.396 287.685 232.278 288.039 228.581 287.595 226.76 287.376 224.985 287.005 223.238 286.567 221.367 287.416 219.428 288.084 217.445 288.534 218.097 290.624 218.839 292.68 219.681 294.697 221.49 299.023 223.704 303.175 226.345 307.046 228.929 310.951 231.957 314.563 235.278 317.872 238.609 321.17 242.261 324.159 246.2 326.749 246.329 326.834 246.363 327.002 246.278 327.131 246.2 327.249 246.042 327.289 245.913 327.216 241.778 324.873 237.913 322.019 234.435 318.743 230.946 315.479 227.862 311.793 225.154 307.849 222.502 303.872 220.232 299.63 218.501 295.174 217.681 293.073 216.984 290.921 216.406 288.741 213.417 289.303 210.344 289.388 207.254 288.932 206.973 293.596 206.742 298.259 206.607 302.922 206.428 309.608 206.377 316.288 206.557 322.974 206.664 329.631 206.849 336.57 204.574 343.093 203.568 345.896 202.057 348.515 200.107 350.768 198.287 356.06 195.303 360.948 191.118 364.398 197.809 375.595 205.551 386.225 215.4 394.731 226.873 404.636 241.52 411.49 256.678 411.316 260.167 411.271 263.734 410.838 266.83 409.237 269.926 407.63 272.482 404.681 272.875 401.214 273.46 396 269.257 391.545 265.049 388.416 260.841 385.286 253.745 382.208 254.06 376.977 254.925 362.785 255.599 348.318 256.464 334.126 263.807 336.902 271.943 339.688 279.297 336.958 285.949 334.486 290.236 328.092 293.556 321.822 303.512 303.04 308.799 281.837 309.052 260.588ZM134.749 237.48 103.214 237.48 103.214 157.082C102.731 157.852 102.247 158.61 101.776 159.386L101.776 238.918 134.637 238.918C134.676 238.435 134.693 237.958 134.749 237.48ZM211.984 169.993C212.456 169.774 212.939 169.583 213.422 169.381L213.422 72.3469 172.488 72.3469C171.971 72.8244 171.465 73.3076 170.954 73.7852L211.984 73.7852ZM325.648 192.432C326.036 192.904 326.412 193.382 326.772 193.871L359.482 193.871 359.482 27.2993 247.835 27.2993 247.835 165.302C248.318 165.386 248.795 165.498 249.273 165.605L249.273 28.7376 358.043 28.7376 358.043 192.432ZM243.52 164.661 243.52 22.9845 363.796 22.9845 363.796 198.186 329.581 198.186C329.851 198.663 330.12 199.141 330.373 199.624L365.235 199.624 365.235 21.5462 245.559 21.5462C244.396 22.108 243.233 22.6699 242.081 23.2485L242.081 164.526C242.379 164.549 242.671 164.554 242.969 164.583 243.155 164.605 243.334 164.639 243.52 164.661ZM217.782 167.678C218.26 167.51 218.743 167.352 219.221 167.195L219.221 66.5938 178.842 66.5938C178.302 67.0713 177.774 67.5545 177.241 68.032L217.782 68.032ZM134.57 244.671 96.0674 244.671 96.0674 168.937C96.5505 168.116 97.0225 167.291 97.5057 166.47L97.5057 243.233 134.508 243.233C134.519 243.711 134.542 244.188 134.57 244.671" fill="#F9D291" transform="matrix(1 0 0 1.00139 1056 244.413)"/><g clip-path="url(#clip5)"><path d="M248.014 596.276C247.419 595.686 246.835 595.085 246.312 594.439 245.773 593.804 245.295 593.124 244.823 592.428 244.357 591.72 243.947 590.984 243.52 590.214 243.469 590.118 243.362 590.057 243.244 590.074 243.093 590.09 242.98 590.225 242.997 590.383 243.098 591.287 243.379 592.169 243.756 593.006 243.913 593.366 244.104 593.709 244.306 594.046 244.222 594.113 244.132 594.175 244.059 594.248 243.773 594.546 243.582 594.917 243.447 595.299 243.334 595.681 243.261 596.079 243.306 596.484 243.34 596.877 243.435 597.276 243.666 597.613 243.705 597.664 243.756 597.703 243.818 597.726 243.975 597.782 244.143 597.703 244.205 597.546L244.211 597.523C244.334 597.186 244.413 596.883 244.514 596.596 244.621 596.31 244.7 596.035 244.806 595.765 244.879 595.551 244.964 595.349 245.048 595.136 245.098 595.203 245.143 595.282 245.2 595.349 245.79 596.063 246.447 596.714 247.2 597.254 247.941 597.787 248.745 598.248 249.621 598.529 249.745 598.568 249.891 598.529 249.981 598.422 250.093 598.282 250.076 598.074 249.93 597.956 249.267 597.4 248.616 596.86 248.014 596.276ZM264.611 573.353C265.982 574.831 267.246 576.41 268.493 578 269.735 579.595 270.915 581.242 272.083 582.91 272.162 583.017 272.302 583.056 272.426 583 272.566 582.933 272.623 582.77 272.561 582.635 271.684 580.77 270.628 578.994 269.476 577.286 268.325 575.573 267.027 573.966 265.684 572.398 264.291 570.876 262.841 569.398 261.279 568.05 259.717 566.701 258.077 565.443 256.329 564.353 256.2 564.269 256.02 564.291 255.914 564.415 255.796 564.55 255.807 564.757 255.942 564.875 257.464 566.224 258.976 567.572 260.42 568.988 261.869 570.393 263.285 571.831 264.611 573.353ZM242.121 595.186C242.053 594.995 241.986 594.804 241.868 594.624 241.761 594.439 241.643 594.248 241.441 594.062L241.424 594.051C241.402 594.029 241.374 594.006 241.34 593.99 241.143 593.888 240.896 593.967 240.8 594.164 240.666 594.422 240.638 594.681 240.638 594.928 240.626 595.181 240.688 595.422 240.767 595.658 240.862 595.883 240.963 596.108 241.138 596.293 241.301 596.49 241.486 596.664 241.756 596.782 241.778 596.793 241.806 596.804 241.834 596.804 242.02 596.838 242.199 596.714 242.233 596.529L242.233 596.518C242.284 596.242 242.267 596.018 242.244 595.799 242.239 595.579 242.177 595.383 242.121 595.186ZM105.978 564.066C101.95 563.336 97.854 562.982 93.747 562.926 89.64 562.875 85.533 563.173 81.4654 563.724 77.4034 564.336 73.375 565.184 69.4478 566.381 65.5207 567.572 61.689 569.055 58.0202 570.876 57.8966 570.938 57.8348 571.089 57.8854 571.224 57.9416 571.365 58.1045 571.432 58.2449 571.376 62.0261 569.887 65.869 568.589 69.7849 567.55 73.6953 566.51 77.6562 565.668 81.6677 565.145 85.6679 564.555 89.7074 564.269 93.7526 564.201 97.7978 564.128 101.849 564.319 105.888 564.713 106.057 564.729 106.214 564.611 106.242 564.443 106.276 564.269 106.158 564.1 105.978 564.066ZM205.439 597.299C202.984 595.888 201.484 592.866 201.838 589.877 201.854 589.725 201.764 589.573 201.613 589.523 201.439 589.467 201.259 589.562 201.203 589.736 200.399 592.22 201.152 595.085 202.944 597.068 201.972 596.917 201.012 596.653 200.113 596.259 198.568 595.585 197.157 594.501 196.472 592.922 196.421 592.804 196.292 592.731 196.163 592.759 196.017 592.787 195.916 592.933 195.944 593.085 196.124 594.029 196.641 594.9 197.275 595.63 197.933 596.344 198.719 596.922 199.562 597.383 201.259 598.276 203.175 598.726 205.119 598.636 205.355 598.619 205.585 598.49 205.709 598.276 205.905 597.928 205.782 597.495 205.439 597.299ZM318.985 377.904C318.288 378.32 317.625 378.741 316.945 379.112 316.254 379.477 315.574 379.842 314.872 380.151 314.176 380.477 313.456 380.752 312.732 381.028 312.001 381.297 311.254 381.522 310.49 381.775 310.366 381.814 310.271 381.927 310.26 382.061 310.243 382.241 310.378 382.404 310.557 382.421 311.4 382.505 312.243 382.421 313.074 382.252 313.9 382.095 314.704 381.809 315.473 381.455 316.237 381.09 316.968 380.657 317.625 380.123 318.277 379.595 318.884 378.999 319.361 378.303 319.423 378.219 319.429 378.095 319.372 377.999 319.288 377.87 319.114 377.825 318.985 377.904ZM274.662 319.861C274.145 319.839 273.639 319.856 273.128 319.856 272.623 319.867 272.117 319.861 271.6 319.889 271.083 319.912 270.561 319.923 270.021 319.996 269.931 320.007 269.847 320.063 269.802 320.148 269.723 320.283 269.774 320.462 269.915 320.535 270.409 320.816 270.943 320.979 271.482 321.103 272.021 321.232 272.578 321.277 273.128 321.288 273.684 321.288 274.241 321.255 274.78 321.131 275.325 321.013 275.859 320.861 276.359 320.586 276.449 320.535 276.522 320.44 276.533 320.328 276.555 320.142 276.421 319.968 276.235 319.945 275.69 319.878 275.173 319.878 274.662 319.861ZM276.072 308.119 267.791 307.625 261.038 307.13C262.526 308.855 264.448 310.265 266.493 311.383 267.746 312.063 269.061 312.636 270.42 313.086 271.746 313.529 273.246 313.838 274.527 313.94L274.623 313.945C276.988 312.878 279.269 311.26 281.101 309.361 281.325 309.136 281.595 308.849 281.758 308.647 281.82 308.568 281.848 308.501 281.865 308.462 281.803 308.434 281.556 308.389 281.247 308.389L280.207 308.338C278.831 308.276 277.449 308.203 276.072 308.119ZM267.886 306.198 276.156 306.804C277.539 306.9 278.915 307.012 280.292 307.136L281.325 307.226C281.64 307.282 282.106 307.203 282.651 307.641 282.927 307.877 283.044 308.31 282.966 308.636 282.893 308.956 282.747 309.153 282.612 309.321 282.325 309.642 282.106 309.849 281.837 310.108 279.769 312.08 277.37 313.529 274.634 314.529L274.527 314.569C272.943 314.541 271.6 314.282 270.173 313.9 268.746 313.501 267.353 312.968 266.015 312.316 264.684 311.653 263.403 310.878 262.212 309.962 261.021 309.046 259.908 308.001 259.015 306.731 258.802 306.433 258.875 306.018 259.172 305.81 259.302 305.72 259.448 305.681 259.594 305.692L259.611 305.692ZM282.601 299.545C283.528 299.742 284.516 299.495 285.337 299.045 286.157 298.568 286.837 297.877 287.331 297.057 288.309 295.405 288.416 293.483 288.309 291.742 288.174 289.994 287.865 288.264 287.32 286.607 286.792 284.949 286.078 283.348 285.14 281.898 285.067 281.792 284.932 281.741 284.809 281.792 284.663 281.848 284.595 282.005 284.651 282.146 285.258 283.724 285.781 285.309 286.151 286.932 286.517 288.55 286.781 290.191 286.876 291.832 286.989 293.461 286.876 295.085 286.213 296.444 285.556 297.764 284.219 298.888 282.668 298.899 282.516 298.899 282.376 299.006 282.348 299.158 282.309 299.332 282.421 299.506 282.601 299.545ZM249.666 258.15C251.722 257.459 253.818 256.936 255.942 256.638 258.066 256.346 260.212 256.217 262.347 256.363 264.482 256.447 266.605 256.796 268.684 257.313 270.763 257.824 272.785 258.566 274.763 259.459 274.904 259.526 275.083 259.481 275.168 259.341 275.269 259.195 275.229 258.993 275.078 258.891 273.218 257.667 271.162 256.745 269.027 256.088 266.886 255.425 264.656 255.071 262.42 254.93 260.178 254.857 257.925 254.987 255.74 255.447 253.548 255.897 251.413 256.61 249.447 257.644 249.329 257.706 249.273 257.846 249.312 257.976 249.363 258.122 249.52 258.2 249.666 258.15ZM294.275 262.375C295.343 261.493 296.455 260.723 297.652 260.099 298.843 259.487 300.09 258.987 301.383 258.65 302.669 258.296 303.995 258.099 305.332 258.032 306.675 257.964 308.023 258.071 309.377 258.29 309.524 258.313 309.675 258.24 309.737 258.094 309.81 257.931 309.731 257.734 309.563 257.667 308.237 257.099 306.787 256.818 305.332 256.756 303.877 256.689 302.411 256.88 301.001 257.262 299.602 257.661 298.242 258.245 297.034 259.054 295.821 259.852 294.719 260.835 293.877 261.998 293.804 262.099 293.804 262.24 293.888 262.341 293.983 262.459 294.163 262.47 294.275 262.375ZM691.607 323.322 390.551 323.322C387.483 323.322 384.859 325.513 384.314 328.536L343.396 556.223C342.694 560.111 345.677 563.679 349.627 563.679L510.237 563.679 514.833 583.916C515.434 586.517 516.075 589.107 516.682 591.703L441.217 591.703 413.855 606.867 520.283 606.867C520.289 606.889 520.294 606.917 520.3 606.94 520.339 607.108 520.508 607.215 520.682 607.181 520.856 607.148 520.968 606.973 520.935 606.799 519.362 599.068 517.749 591.349 516.075 583.641L510.996 560.538 505.732 537.469C503.956 529.806 502.125 522.159 500.259 514.519L546.397 514.519C546.397 514.535 546.386 514.552 546.386 514.575 547.953 522.306 549.56 530.031 551.223 537.739L556.274 560.847 561.516 583.916C563.285 591.602 565.111 599.276 566.977 606.94 567.016 607.108 567.185 607.215 567.359 607.181 567.51 607.153 567.595 607.013 567.6 606.867L606.097 606.867 579.455 591.703 564.448 591.703C563.881 589.017 563.336 586.326 562.757 583.641L558.369 563.679 650.684 563.679C653.746 563.679 656.375 561.482 656.914 558.465L697.838 330.772C698.54 326.89 695.552 323.322 691.607 323.322ZM322.597 382.421C326.592 390.202 330.379 398.107 335.592 404.512 342.885 413.468 350.599 422.086 358.695 430.328L360.476 420.423C350.728 411.17 341.374 401.641 335.553 394.135 332.216 389.832 327.693 385.921 322.597 382.421ZM282.893 495.017C282.893 494.899 282.82 494.787 282.702 494.748 282.556 494.703 282.398 494.781 282.353 494.928L281.342 498.034C280.983 499.057 280.64 500.08 280.247 501.08 279.87 502.091 279.454 503.08 279.044 504.08L277.741 507.074C277.69 507.204 277.718 507.361 277.836 507.456 277.971 507.574 278.179 507.557 278.297 507.417 279.027 506.563 279.634 505.619 280.185 504.642 280.741 503.664 281.196 502.636 281.589 501.585 281.971 500.529 282.303 499.456 282.511 498.349 282.735 497.254 282.887 496.141 282.893 495.017ZM164.734 416.653C164.869 408.703 163.24 400.686 159.678 393.562 157.886 390.011 155.616 386.685 152.835 383.831 150.048 381 146.75 378.651 143.126 377.05 142.991 376.988 142.829 377.044 142.767 377.179 142.699 377.314 142.755 377.477 142.896 377.544 149.936 380.96 155.267 387.146 158.588 394.096 161.914 401.085 163.504 408.889 163.302 416.62 163.144 424.39 161.442 432.064 159.077 439.492 156.706 446.936 153.677 454.172 150.649 461.414 150.582 461.572 150.655 461.763 150.818 461.836 150.981 461.909 151.172 461.836 151.245 461.673 154.548 454.554 157.784 447.374 160.285 439.891 162.79 432.418 164.526 424.603 164.734 416.653ZM147.778 473.679C147.643 473.6 147.475 473.64 147.396 473.769 146.441 475.359 145.565 476.983 144.699 478.612 143.834 480.241 143.042 481.91 142.205 483.551 141.43 485.225 140.626 486.888 139.879 488.573 139.137 490.264 138.407 491.961 137.761 493.697 137.71 493.838 137.766 494.006 137.901 494.09 138.059 494.18 138.261 494.13 138.351 493.978 139.306 492.388 140.171 490.759 141.025 489.124 141.879 487.489 142.677 485.826 143.497 484.174 144.261 482.494 145.065 480.837 145.795 479.14 146.531 477.449 147.256 475.747 147.891 474.011 147.936 473.887 147.891 473.747 147.778 473.679ZM344.408 500.074 338.402 505.147C331.603 526.042 314.625 559.28 314.625 559.28L314.625 595.04 281.067 595.04 271.814 572.05C277.258 572.393 281.499 569.381 278.134 566.28 276.072 564.387 271.735 563.229 267.987 562.544L252.796 524.794C255.026 521.558 257.099 518.215 258.97 514.755 261.863 509.412 264.296 503.827 266.336 498.096 268.313 492.354 269.909 486.466 270.976 480.489 272.061 474.511 272.645 468.448 272.712 462.386 272.712 462.24 272.6 462.117 272.454 462.111 272.302 462.1 272.173 462.212 272.162 462.369 271.78 468.387 270.976 474.365 269.785 480.258 268.583 486.152 267.01 491.967 264.982 497.624 263.015 503.299 260.599 508.822 257.841 514.159 256.155 517.423 254.318 520.609 252.369 523.727L244.655 504.557C243.913 502.686 241.795 501.771 239.924 502.512 238.053 503.254 237.137 505.372 237.879 507.243L257.29 555.482C256.307 554.74 255.223 554.15 254.043 553.762L234.351 547.313C230.159 545.942 225.552 547.127 222.552 550.358L221.99 550.965C221.99 550.965 221.996 550.965 221.996 550.965 222.097 551.066 222.103 551.223 222.018 551.33 220.333 553.532 218.507 555.622 216.642 557.673 214.782 559.723 212.838 561.695 210.911 563.679 208.939 565.617 206.973 567.567 204.956 569.454 202.933 571.342 200.899 573.213 198.798 575.016 198.658 575.134 198.455 575.118 198.337 574.983 198.231 574.854 198.231 574.668 198.343 574.55 200.203 572.499 202.135 570.522 204.068 568.544L205.641 566.954 155.773 565.499 138.014 494.86 117.17 535.497 114.804 529.952C105.416 507.968 85.4769 492.276 61.9025 488.315 61.9025 488.315 60.5147 491.545 58.3124 496.776 55.0538 490.714 52.5761 484.051 51.3457 476.736 51.3457 476.736 80.117 392.804 119.434 368.156 127.755 364.055 133.968 364.105 142.042 364.869 149.604 365.583 157.009 367.24 164.465 368.656 171.572 370.005 179.207 370.488 185.809 367.645L247.278 442.144C241.104 442.778 236.283 447.992 236.283 454.335 236.283 461.105 241.772 466.594 248.542 466.594 255.313 466.594 260.796 461.105 260.796 454.335 260.796 447.88 255.801 442.604 249.464 442.127 251.52 436.57 265.414 397.158 260.757 359.167 264.768 359.392 268.639 359.88 272.128 360.757L272.122 360.746C272.122 360.746 278.662 362.392 287.73 365.589 287.022 367.577 286.556 369.566 286.466 371.454 286.46 371.561 286.455 371.662 286.455 371.769 286.444 372.184 286.449 372.595 286.477 372.999 286.483 373.072 286.494 373.145 286.5 373.218 286.533 373.583 286.59 373.943 286.657 374.303 286.674 374.37 286.685 374.449 286.702 374.522 286.786 374.909 286.899 375.291 287.033 375.662 287.062 375.746 287.095 375.831 287.129 375.909 287.281 376.291 287.444 376.668 287.651 377.033 287.646 377.027 287.635 377.027 287.623 377.027 299.461 403.445 311.293 429.862 323.131 456.279 324.384 459.088 325.648 461.898 326.918 464.701 327.137 465.184 327.356 465.673 327.581 466.156 328.851 468.96 330.137 471.752 331.441 474.544 331.665 475.022 331.89 475.499 332.115 475.977 333.446 478.803 334.8 481.618 336.182 484.416 336.334 484.725 336.491 485.028 336.643 485.337 337.935 487.933 339.256 490.512 340.61 493.074 341.846 495.422 343.104 497.759 344.408 500.074ZM252.796 524.794 252.717 524.592ZM205.141 331.632C203.422 330.974 202.45 330.57 202.45 330.57 202.45 330.603 202.45 330.637 202.45 330.665 202.489 331.794 202.512 332.918 202.512 334.042 202.512 334.25 202.501 334.458 202.495 334.665 202.489 335.621 202.478 336.57 202.433 337.52 202.416 337.991 202.366 338.463 202.338 338.935 202.293 339.621 202.253 340.306 202.186 340.992 202.068 342.149 201.916 343.306 201.725 344.458 201.545 345.514 201.315 346.571 201.051 347.616 202.006 346.065 202.793 344.408 203.371 342.677 204.546 339.121 204.989 335.401 205.141 331.632ZM259.318 359.201C259.313 359.161 259.324 359.128 259.324 359.088 258.015 359.038 256.695 359.004 255.363 359.004 255.211 357.392 255.217 356.397 255.217 356.397 255.217 356.397 261.285 351.678 261.285 347.868 261.285 344.065 255.902 343.806 255.902 343.806 236.991 342.93 215.321 335.474 206.501 332.154 206.315 335.845 205.815 339.531 204.574 343.093 203.568 345.896 202.057 348.515 200.107 350.768 200.107 350.773 200.107 350.779 200.101 350.784 199.809 351.633 199.489 352.47 199.135 353.29 199.113 353.341 199.096 353.386 199.073 353.431 198.736 354.212 198.377 354.976 197.983 355.717 197.961 355.768 197.938 355.818 197.91 355.863 197.528 356.588 197.118 357.285 196.686 357.976 196.59 358.133 196.483 358.285 196.382 358.442 195.995 359.038 195.584 359.616 195.157 360.178 195.067 360.291 194.983 360.409 194.899 360.521 194.461 361.066 194.006 361.594 193.528 362.105 193.343 362.308 193.152 362.504 192.955 362.701 192.483 363.184 191.994 363.65 191.483 364.089 191.27 364.268 191.05 364.431 190.837 364.6 190.438 364.926 190.022 365.229 189.601 365.527 189.348 365.701 189.095 365.875 188.831 366.044 188.286 366.386 187.73 366.712 187.146 367.01L248.301 441.127C250.868 434.059 263.858 395.905 259.318 359.201ZM263.369 274.904C264.06 272.566 263.465 270.33 262.049 269.915 260.633 269.493 258.925 271.055 258.234 273.392 257.549 275.729 258.139 277.96 259.56 278.381 260.976 278.797 262.684 277.241 263.369 274.904ZM298.793 269.915C297.377 269.493 295.669 271.055 294.983 273.392 294.292 275.729 294.888 277.96 296.304 278.381 297.72 278.797 299.427 277.241 300.118 274.904 300.804 272.566 300.214 270.33 298.793 269.915ZM324.485 253.812C324.317 254.43 324.187 255.054 324.097 255.695 323.676 258.633 324.693 261.622 326.609 263.616ZM298.006 312.535 299.377 318.867C300.995 314.771 302.748 310.731 304.652 306.759 310.608 307.574 316.563 308.147 322.502 307.181 324.221 310.035 321.777 314.17 319.176 316.243 316.569 318.311 313.159 319.007 309.889 319.642 310.378 321.024 310.805 322.418 311.22 323.817 310.928 323.283 310.63 322.755 310.305 322.249 310.231 322.131 310.08 322.086 309.956 322.142 309.816 322.21 309.754 322.373 309.821 322.507 310.979 324.985 311.928 327.541 312.608 330.16 313.282 332.783 313.749 335.458 313.889 338.154 314.097 340.851 313.99 343.559 313.653 346.245 313.327 348.93 312.715 351.582 311.894 354.183 311.844 354.341 311.917 354.509 312.069 354.577 312.232 354.655 312.428 354.582 312.501 354.419 313.664 351.891 314.445 349.183 314.911 346.43 315.277 344.278 315.417 342.093 315.383 339.907L334.064 333.031C333.328 333.969 332.637 334.935 332.047 335.963 331.3 337.261 330.648 338.609 330.182 340.025 330.137 340.171 330.193 340.329 330.323 340.413 330.48 340.503 330.682 340.458 330.778 340.301 331.536 339.053 332.295 337.829 333.12 336.649 333.952 335.474 334.806 334.317 335.727 333.222 336.059 332.817 336.407 332.429 336.755 332.042L341.087 330.446 340.593 328.148C340.992 327.783 341.391 327.418 341.801 327.053 341.891 326.974 341.919 326.834 341.857 326.716 341.784 326.581 341.621 326.53 341.486 326.603 341.11 326.805 340.761 327.047 340.402 327.272L340.132 326.036C339.464 326.435 338.874 326.744 338.458 326.912 334.087 328.688 328.901 328.3 324.839 325.901 322.738 324.654 320.771 322.255 321.659 319.979 322.457 317.951 324.974 317.339 327.131 317.007 330.452 316.501 333.767 315.99 337.087 315.479 337.329 315.462 337.576 315.456 337.817 315.428 338.997 315.31 340.177 315.153 341.34 314.878 341.475 314.844 341.582 314.726 341.587 314.574 341.598 314.395 341.458 314.237 341.278 314.232 340.098 314.164 338.93 314.17 337.761 314.159L337.559 314.159 336.896 311.091C336.463 311.091 336.07 311.069 335.744 311.012 330.553 310.113 325.614 307.804 321.603 304.388 320.193 303.192 318.856 301.798 318.266 300.045 317.67 298.298 318.018 296.118 319.49 295.006 324.159 296.079 328.755 297.422 333.283 298.978 332.811 298.748 332.362 298.472 331.907 298.208L336.182 300.489C336.295 300.551 336.446 300.523 336.525 300.416 336.621 300.298 336.598 300.124 336.48 300.034 335.081 298.911 333.604 297.894 332.098 296.922 330.592 295.944 329.036 295.056 327.463 294.202 326.873 293.893 326.277 293.596 325.687 293.298 323.024 290.612 320.67 287.522 318.429 284.483 316.996 282.544 315.558 279.792 317.103 277.937 317.996 276.853 319.625 276.634 320.974 277.022 322.322 277.415 323.457 278.303 324.558 279.179 326.44 280.668 328.688 282.146 330.952 283.674L327.716 268.735C323.918 270.027 319.406 269.527 315.867 267.493 313.013 265.858 310.76 263.409 309.052 260.588 308.838 278.404 305.085 296.186 298.006 312.535ZM265.836 592.091 265.111 592.141C264.296 592.197 263.543 592.512 262.908 592.989 262.352 592.051 261.768 591.13 261.15 590.236 260.324 589.023 259.42 587.871 258.498 586.736 257.56 585.613 256.594 584.511 255.565 583.472 254.543 582.427 253.487 581.41 252.352 580.483 252.234 580.388 252.065 580.382 251.942 580.477 251.801 580.584 251.773 580.792 251.885 580.933 252.767 582.096 253.7 583.202 254.621 584.32L257.391 587.652 260.184 590.972C260.897 591.81 261.616 592.647 262.341 593.478 262.099 593.748 261.886 594.046 261.717 594.383L261.38 595.04 273.212 595.04 270.96 589.444C269.757 590.927 267.959 591.95 265.836 592.091ZM117.17 535.503 117.17 535.497Z" fill="#30526A" transform="matrix(1 0 0 1.00139 1056 244.413)"/></g></g></g></g></g></svg>